<svg viewBox="0 0 60 60">
<!-- <svg viewBox="0 0 60 60"> -->
    <rect x="0" y="15" width="60" height="30" fill="#FFF" />

    <rect x="0" y="15" width="15" height="30" fill="#F00" />
    <rect x="45" y="15" width="15" height="30" fill="#F00" />

    <!-- Start at the middle of the stem -->
    <path d="M 30,42.6875
        h -0.5625
        l 0.2826,-5.3931
        a 0.5937,0.5937 0 0,0 -0.696,-0.6158
        l -5.3678,0.9465
        l 0.7279,-2
        a 0.4062,0.4062 0 0,0 -0.126,-0.4546
        l -5.8831,-4.764
        l 1.3225,-0.6167
        a 0.4062,0.4062 0 0,0 0.2146,-0.4937
        l -1.1622,-3.577
        l 3.3863,0.7197
        a 0.4062,0.4062 0 0,0 0.4584,-0.2386
        l 0.6552,-1.5436
        l 2.6447,2.836
        a 0.4062,0.4062 0 0,0 0.6958,-0.3545
        l -1.278,-6.5752
        l 2.0455,1.1809
        a 0.4062,0.4062 0 0,0 0.565,-0.1674
        l 2.0768,-4.076
        l 2.0768,4.076
        a 0.4062,0.4062 0 0,0 0.565,0.1674
        l 2.0455,-1.1809
        l -1.278,6.5752
        a 0.4062,0.4062 0 0,0 0.6958,0.3545
        l 2.6447,-2.836
        l 0.6552,1.5436
        a 0.4062,0.4062 0 0,0 0.4584,0.2386
        l 3.3863,-0.7197
        l -1.1622,3.577
        a 0.4062,0.4062 0 0,0 0.2146,0.4937
        l 1.3225,0.6167
        l -5.8831,4.764
        a 0.4062,0.4062 0 0,0 -0.126,0.4546
        l 0.7279,2
        l -5.3678,-0.9465
        a 0.5937,0.5937 0 0,0 -0.696,0.6158
        l 0.2826,5.3931
        h -0.5625
    "
       fill="#F00" stroke="#F00"
       stroke-linejoin="round" stroke-width="0.25" />
</svg>
